HIERARCHY
ROOT Hip
{
	OFFSET 0 0 0
	CHANNELS 6 Xposition Yposition Zposition Zrotation Yrotation Xrotation
	JOINT ShoulderCenter
	{
		OFFSET 0 43.63 0
		CHANNELS 3 Zrotation Yrotation Xrotation
		JOINT Head
		{
			OFFSET 0 18.49 0
			CHANNELS 3 Zrotation Yrotation Xrotation
			End Site
			{
				OFFSET 0.0 8.91 0.0
			}
		}
		JOINT ShoulderLeft
		{
			OFFSET -14 0 0
			CHANNELS 3 Zrotation Yrotation Xrotation
			JOINT ElbowLeft
			{
				OFFSET -25 0 0
				CHANNELS 3 Zrotation Yrotation Xrotation
				JOINT WristLeft
				{
					OFFSET -23 0 0
					CHANNELS 3 Zrotation Yrotation Xrotation
					End Site
					{
						OFFSET -8.32 0.0 0.0
					}
				}
			}
		}
		JOINT ShoulderRight
		{
			OFFSET 14 0 0
			CHANNELS 3 Zrotation Yrotation Xrotation
			JOINT ElbowRight
			{
				OFFSET 25 0 0
				CHANNELS 3 Zrotation Yrotation Xrotation
				JOINT WristRight
				{
					OFFSET 23 0 0
					CHANNELS 3 Zrotation Yrotation Xrotation
					End Site
					{
						OFFSET 8.32 0.0 0.0
					}
				}
			}
		}
	}
	JOINT HipLeft
	{
		OFFSET -9.52 0 0
		CHANNELS 3 Zrotation Yrotation Xrotation
		JOINT KneeLeft
		{
			OFFSET 0 -37.32 0
			CHANNELS 3 Zrotation Yrotation Xrotation
			JOINT AnkleLeft
			{
				OFFSET 0 -34.6 0
				CHANNELS 3 Zrotation Yrotation Xrotation
				End Site
				{
					OFFSET 0.0 0.0 8.91
				}
			}
		}
	}
	JOINT HipRight
	{
		OFFSET 9.52 0 0
		CHANNELS 3 Zrotation Yrotation Xrotation
		JOINT KneeRight
		{
			OFFSET 0 -37.32 0
			CHANNELS 3 Zrotation Yrotation Xrotation
			JOINT AnkleRight
			{
				OFFSET 0 -34.6 0
				CHANNELS 3 Zrotation Yrotation Xrotation
				End Site
				{
					OFFSET 0.0 0.0 8.91
				}
			}
		}
	}
}
MOTION
Frames: 14
Frame Time: 0.033333
16.3349 -20.3127 -235.923 0.447343 8.63837 -10.0098 -5.16183 2.59915 1.78842 0 0 0 0 0 0 0 0 0 0 0 0 0 0 0 0 0 0 0 0 0 -10.2408 0.672901 7.12341 6.77572 -0.0704177 -2.01345 0 0 0 -0.384317 -0.271274 7.77848 3.07383 0.229124 -3.10514 -6.63159e-009 -3.48014e-007 1.06698e-007 
16.3457 -20.3205 -235.948 0.493679 8.44764 -9.97645 -5.20409 2.58787 1.74722 0 0 0 0 0 0 0 0 0 0 0 0 0 0 0 0 0 0 0 0 0 -10.2704 0.669042 7.04779 6.73308 -0.072674 -2.01363 0 0 0 -0.420382 -0.267874 7.77842 3.06097 0.231164 -3.16348 0 0 0 
16.4101 -20.3413 -235.958 0.568198 8.39948 -9.96469 -5.21434 2.61146 1.96383 1.82882e-007 -2.28324e-007 3.46389e-007 0 0 0 0 0 0 0 0 0 0 0 0 0 0 0 0 0 0 -10.3857 0.683361 7.02704 6.68831 -0.0763486 -1.9826 0 0 0 -0.646466 -0.255742 7.86033 3.2384 0.243222 -3.34888 0 0 0 
16.4311 -20.3696 -236.012 0.576181 8.40899 -9.90563 -5.18476 2.51916 1.96436 1.85433e-007 -2.33065e-007 3.49792e-007 0 0 0 0 0 0 0 0 0 0 0 0 0 0 0 0 0 0 -10.393 0.683983 6.9551 6.61011 -0.0803294 -1.99453 0 0 0 -0.701768 -0.249645 7.80515 3.25987 0.250833 -3.49487 -9.33459e-009 -3.62275e-007 8.92753e-008 
16.4706 -20.3911 -236.081 0.621565 8.42319 -9.81192 -5.32563 2.36831 1.92155 0 0 0 0 0 0 0 0 0 0 0 0 0 0 0 0 0 0 0 0 0 -10.4541 0.689875 6.99573 6.57787 -0.0926993 -2.26345 2.97772e-008 -3.92644e-007 1.1287e-007 -0.79278 -0.24547 7.68467 3.25981 0.25562 -3.59103 -1.24524e-008 -3.61327e-007 8.16463e-008 
16.611 -20.4575 -236.141 0.716914 8.6903 -9.63024 -5.87841 1.90456 2.56721 -1.28709e-007 3.36513e-007 -4.12477e-008 0 0 0 0 0 0 0 0 0 0 0 0 0 0 0 0 0 0 -10.7708 0.734735 7.16881 6.67176 -0.120079 -2.69317 2.29389e-008 -3.78356e-007 1.06967e-007 -0.984618 -0.2222 7.53022 3.22598 0.252942 -3.74164 0 0 0 
16.6615 -20.4811 -236.177 0.750671 8.805 -9.56092 -6.0655 1.71929 2.7448 0 0 0 0 0 0 0 0 0 0 0 0 0 0 0 0 0 0 0 0 0 -10.8771 0.751106 7.25583 6.71451 -0.132068 -2.90073 2.14534e-008 -3.72372e-007 1.03221e-007 -1.0592 -0.213859 7.46265 3.211 0.251998 -3.80352 0 0 0 
16.6689 -20.4811 -236.177 0.755896 8.82232 -9.56315 -6.06484 1.70579 2.78674 0 0 0 0 0 0 0 0 0 0 0 0 0 0 0 0 0 0 0 0 0 -10.8965 0.753903 7.26589 6.73051 -0.130913 -2.87248 0 0 0 -1.0674 -0.213113 7.47557 3.19768 0.25342 -3.84605 0 0 0 
16.6689 -20.4811 -236.177 0.755951 8.82228 -9.5612 -6.06387 1.69965 2.77907 0 0 0 0 0 0 0 0 0 0 0 0 0 0 0 0 0 0 0 0 0 -10.8966 0.753592 7.26398 6.73051 -0.130913 -2.87248 0 0 0 -1.06747 -0.213306 7.47364 3.19493 0.254381 -3.86337 0 0 0 
16.6689 -20.4853 -236.177 0.747768 8.87249 -9.55777 -6.05843 1.70071 2.77064 0 0 0 0 0 0 0 0 0 0 0 0 0 0 0 0 0 0 0 0 0 -10.8936 0.759476 7.28969 6.73381 -0.1329 -2.89668 2.19366e-008 -3.68233e-007 1.05433e-007 -1.06086 -0.211498 7.47018 3.19198 0.254688 -3.88804 0 0 0 
16.6689 -20.4853 -236.156 0.740215 8.89738 -9.58029 -6.05322 1.77995 2.78758 0 0 0 0 0 0 0 0 0 0 0 0 0 0 0 0 0 0 0 0 0 -10.885 0.762692 7.30567 6.72418 -0.134257 -2.91624 0 0 0 -1.06462 -0.211841 7.4925 3.21785 0.255629 -3.887 0 0 0 
16.6689 -20.4876 -236.132 0.720293 8.95948 -9.57221 -6.02635 1.81011 2.68934 0 0 0 0 0 0 0 0 0 0 0 0 0 0 0 0 0 0 0 0 0 -10.8497 0.768301 7.32764 6.65104 -0.142306 -3.03915 0 0 0 -1.04325 -0.213708 7.47069 3.22273 0.255908 -3.86916 -2.11544e-008 -3.28511e-007 6.742e-008 
16.6633 -20.5134 -236.091 0.684364 9.05232 -9.52404 -6.00009 1.9142 2.49815 1.51511e-007 -2.28603e-007 4.02996e-007 0 0 0 0 0 0 0 0 0 0 0 0 0 0 0 0 0 0 -10.7621 0.782848 7.35654 6.43465 -0.168904 -3.39291 0 0 0 -1.00515 -0.214605 7.42446 3.24318 0.256185 -3.8485 -1.9044e-008 -3.22711e-007 6.92688e-008 
16.6633 -20.5302 -236.07 0.643523 9.14757 -9.53351 -5.97685 1.84613 2.47894 1.51401e-007 -2.26726e-007 4.00982e-007 0 0 0 0 0 0 0 0 0 0 0 0 0 0 0 0 0 0 -10.6794 0.791296 7.42147 6.33779 -0.174348 -3.48344 0 0 0 -0.971871 -0.216816 7.37239 3.25566 0.251843 -3.7379 -1.79025e-008 -3.16918e-007 7.28184e-008 
